<svg width="228" height="257" viewBox="0 0 228 257" fill="none" xmlns="http://www.w3.org/2000/svg">
<path d="M222.87 196.063L184.523 167.552C181.884 165.589 178.061 166.655 176.471 169.534C169.948 181.355 155.342 199.456 131.807 207.858C88.6698 213.987 80.0199 166.714 81.0871 142.312L177.948 137.68C180.626 137.552 182.718 135.268 182.671 132.588C180.743 23.8481 137.545 4.89206 93.9028 3.84875C49.6173 2.79008 6.20867 34.0874 4.46362 123.742C2.71857 213.396 63.5944 253.047 127.272 253.178C175.507 253.278 210.349 220.415 223.792 201.35C224.998 199.639 224.551 197.313 222.87 196.063Z" fill="black" stroke="white" stroke-width="7"/>
</svg>
