<svg width="299" height="361" viewBox="0 0 299 361" fill="none" xmlns="http://www.w3.org/2000/svg">
<path d="M297.276 283.284L243.029 238.296C240.424 236.135 236.439 237.118 234.871 240.118C226.188 256.733 205.299 283.92 171.529 295.537C112.543 302.618 102.407 234.344 104.712 199.323L238.564 196.506C241.248 196.45 243.404 194.199 243.433 191.514C245.137 33.3459 186.69 4.13491 127.001 0.875285C66.7019 -2.41766 6.46885 40.8175 0.964843 169.574C-4.53916 298.33 77.0176 357.741 163.77 360.477C230.641 362.586 279.806 315.094 298.054 288.465C299.193 286.803 298.828 284.571 297.276 283.284Z" fill="white"/>
</svg>
