<svg width="97" height="385" viewBox="0 0 97 385" fill="none" xmlns="http://www.w3.org/2000/svg">
<path d="M77.2592 81.9561H36.3455C33.5125 81.9561 31.2452 84.2994 31.3475 87.1305C33.2407 139.514 36.6863 242.302 36.6863 272.859C36.6863 310.71 27.8101 318.207 24.6281 322.23L6.36807 338.845C3.124 341.796 2.86141 346.81 5.77936 350.084L31.5815 379.039C34.4346 382.241 39.3001 382.627 42.6148 379.906C49.4456 374.299 59.6024 365.945 69.3437 357.887C95.4697 336.383 97.9818 292.242 95.9721 272.859L82.2457 86.5886C82.0532 83.9768 79.8781 81.9561 77.2592 81.9561Z" fill="white"/>
<path d="M78.8898 26.5504C78.8898 41.0929 69.0974 55.0761 55.7784 55.0761C42.4593 55.0761 30.6572 41.0929 30.6572 26.5504C30.6572 12.008 46.4787 0.767578 59.7977 0.767578C73.1168 0.767578 78.8898 12.008 78.8898 26.5504Z" fill="white"/>
</svg>
