<svg width="267" height="358" viewBox="0 0 267 358" fill="none" xmlns="http://www.w3.org/2000/svg">
<path d="M23.3212 349.882C8.29926 308.873 2.08003 109.923 0.754009 7.00568C0.718654 4.26167 2.90541 2.08365 5.64906 2.02729L58.47 0.942337C60.6033 0.898519 62.3954 2.53688 62.5426 4.66554L72.2393 144.887L210.892 71.9639C213.177 70.7618 216.002 71.4981 217.41 73.6629L245.444 116.761C246.954 119.082 246.314 122.174 243.982 123.668C210.384 145.183 142.299 187.233 107.739 202.969C128.754 215.106 219.109 276.16 264.823 307.32C266.67 308.579 267.105 311.087 265.788 312.893C257.638 324.06 241.711 344.419 227.832 357.332C185.895 333.549 113.372 284.069 82.3525 262.302L84.2213 353.281L30.6185 354.382C27.4102 354.448 24.4249 352.895 23.3212 349.882Z" fill="white"/>
</svg>
