<svg width="394" height="265" viewBox="0 0 394 265" fill="none" xmlns="http://www.w3.org/2000/svg">
<path d="M85.6934 0.941751L5.10489 1.45343C2.30286 1.47122 0.062466 3.78791 0.138472 6.58896L5.87375 217.952C6.35999 235.871 20.6758 250.335 38.5896 251.006L387.952 264.082C390.813 264.189 393.181 261.903 393.128 259.04C392.505 225.355 390.002 155.356 384.102 106.652C376.32 42.409 335.681 29.1319 302.492 27.9891C269.302 26.8463 249.476 39.8306 222.289 54.8919C211.85 36.6857 194.063 22.5867 155.713 21.4767C125.032 20.5887 99.7864 39.4275 90.9984 48.9579L90.7251 5.90991C90.7075 3.14854 88.4548 0.924219 85.6934 0.941751Z" fill="white"/>
</svg>
