<svg width="229" height="263" viewBox="0 0 229 263" fill="none" xmlns="http://www.w3.org/2000/svg">
<path d="M0.289223 257.287L0.436107 148.494C0.502238 99.5122 6.60911 41.4957 6.60911 41.4957L11.3781 4.42462C11.6993 1.92784 13.8267 0.0591901 16.344 0.0625888L89.4815 0.161333C91.3753 0.16389 93.1453 1.22824 93.6741 3.04676C96.4326 12.5319 93.8786 27.3419 99.309 33.3316C129.955 15.146 163.18 2.37186 186.01 0.451306C187.414 0.333211 188.751 0.996847 189.514 2.18114C197.571 14.6886 212.266 41.6847 227.646 69.4382C229.332 72.4812 227.458 76.2821 224.034 76.9028C136.985 92.6873 102.177 141.527 102.155 157.674L99.146 257.56C99.0645 260.264 96.8576 262.413 94.1522 262.409L5.27744 262.289C2.51602 262.286 0.285495 260.049 0.289223 257.287Z" fill="#FFA6C6"/>
</svg>
