<svg width="324" height="304" viewBox="0 0 324 304" fill="none" xmlns="http://www.w3.org/2000/svg">
<path d="M253.411 2.24692L5.65032 0.895677C2.88893 0.880617 0.638182 3.10695 0.623122 5.86833L0.204072 82.7042C0.189012 85.4656 2.40235 87.7159 5.16333 87.7653C32.1423 88.2477 86.0095 91.2569 129.522 91.8741C133.58 91.9317 135.909 96.5312 133.505 99.8018C102.907 141.431 71.4259 176.411 34.3816 223.989C30.8973 228.464 28.5889 233.801 28.0167 239.443C23.831 280.725 35.8522 297.667 45.1824 302.419C47.5798 303.64 50.3049 303.656 52.9888 303.468C111.419 299.378 237.295 291.862 309.911 292.021C311.862 292.026 313.612 290.898 314.389 289.107C330.534 251.891 322.236 217.06 314.909 201.667C314.13 200.029 312.453 199.052 310.639 199.042L191.548 198.392C188.322 198.375 186.443 194.742 188.292 192.099L255.949 95.4319C257.231 93.5999 257.925 91.4206 257.937 89.1844L258.384 7.27412C258.399 4.51273 256.172 2.26198 253.411 2.24692Z" fill="white"/>
</svg>
